HIERARCHY
ROOT Hips
{
	OFFSET 0.00000 0.00000 0.00000
	CHANNELS 6 Xposition Yposition Zposition Yrotation Zrotation Xrotation 
	JOINT Lumbar
	{
		OFFSET 0 0 0
		CHANNELS 3 Zrotation Xrotation Yrotation
		JOINT Neck
		{
			OFFSET 0.00 0.2701 0.00
			CHANNELS 3 Zrotation Xrotation Yrotation
			End Site
			{
				OFFSET 0.00 0.1379 0.00
			}
		}
		JOINT RightShoulder
		{
			OFFSET 0.0119 0.2289 0.1181
			CHANNELS 3 Zrotation Xrotation Yrotation
			JOINT RightElbow
			{
				OFFSET 0.00 -0.1475 0.00
				CHANNELS 2 Zrotation Yrotation
				JOINT RightWrist
				{
					OFFSET 0.00 -0.1605 0.00
					CHANNELS 2 Zrotation Xrotation
					End Site
					{
						OFFSET 0.0040 -0.1068 0.0006
					}
				}
			}
		}
		JOINT LeftShoulder
		{
			OFFSET 0.0119 0.2289 -0.1181
			CHANNELS 3 Zrotation Xrotation Yrotation
			JOINT LeftElbow
			{
				OFFSET 0.00 -0.1475 0.00
				CHANNELS 2 Zrotation Yrotation
				JOINT LeftWrist
				{
					OFFSET 0.00 -0.1605 0.00
					CHANNELS 2 Zrotation Xrotation
					End Site
					{
						OFFSET 0.0040 -0.1068 -0.0006
					}
				}
			}
		}
	}
	JOINT RightHip
	{
		OFFSET 0.0316 -0.0424 0.0458
		CHANNELS 3 Zrotation Xrotation Yrotation
		JOINT RightKnee
		{
			OFFSET 0.00 -0.2438 0.00
			CHANNELS 1 Zrotation
			JOINT RightAnkle
			{
				OFFSET 0.00 -0.2449 0.00
				CHANNELS 3 Zrotation Xrotation Yrotation
				End Site
				{
					OFFSET 0.1237 -0.0542 0.0051
				}
			}
		}
	}
	JOINT LeftHip
	{
		OFFSET 0.0316 -0.0424 -0.0458
		CHANNELS 3 Zrotation Xrotation Yrotation
		JOINT LeftKnee
		{
			OFFSET 0.00 -0.2438 0.00
			CHANNELS 1 Zrotation
			JOINT LeftAnkle
			{
				OFFSET 0.00 -0.2449 0.00
				CHANNELS 3 Zrotation Xrotation Yrotation
				End Site
				{
					OFFSET 0.1237 -0.0542 -0.0051
				}
			}
		}
	}
}
MOTION
Frames: 30
Frame Time: 0.02
-0.1975 -0.24789 0.11089 28.13636 0.83457 -9.60046 17.91791 2.77669 -9.46684 -28.64007 9.42617 -2.11977 -5.04875 -24.57667 29.71715 106.52474 72.77613 14.86688 -5.03443 60.32338 15.09572 -54.00167 97.12857 -81.60713 32.80512 3.00486 86.56428 -16.02703 -10.70537 -95.38782 -8.45036 -3.67089 -4.11455 91.69904 18.39212 1.13713 -96.72148 -8.54019 2.59894 3.60239
-0.19789 -0.24786 0.11006 27.97466 0.87756 -9.71549 17.96883 3.04577 -9.74176 -28.83715 9.16789 -2.11977 -5.29088 -23.61669 29.97879 106.02616 73.00497 14.52429 -4.96462 59.63945 14.96704 -53.16464 96.87269 -82.29044 31.97791 2.9079 86.47249 -15.98555 -10.80601 -95.30867 -8.44031 -3.66099 -4.10778 91.69688 18.37591 1.01129 -96.78068 -8.52332 2.61975 3.61189
-0.19822 -0.24788 0.10933 27.81693 0.90671 -9.84296 18.00688 3.33885 -10.0781 -28.91747 8.77456 -2.11977 -5.31151 -22.5351 30.19413 105.51817 73.23649 14.03896 -4.90672 58.62382 14.78025 -52.12417 96.74718 -82.71967 30.53223 2.85078 86.40381 -15.94403 -10.93092 -95.24978 -8.4291 -3.6505 -4.10059 91.73159 18.36094 0.85387 -96.84845 -8.50637 2.63912 3.62029
-0.19857 -0.24789 0.10858 27.65811 0.94434 -9.96206 18.04569 3.61511 -10.38446 -29.04889 8.4414 -2.11977 -5.42531 -21.52093 30.43102 105.01292 73.39389 13.64809 -4.86225 57.79455 14.66075 -51.23523 96.58376 -83.21589 29.39915 2.78374 86.32365 -15.90302 -11.0434 -95.18257 -8.41845 -3.64007 -4.09358 91.74629 18.34708 0.7133 -96.91092 -8.48991 2.6589 3.62906
-0.19895 -0.24787 0.10773 27.49422 0.97341 -10.09219 18.10531 3.91907 -10.70302 -29.18561 8.10287 -2.11977 -5.56308 -20.44684 30.66814 104.51544 73.85679 13.11676 -4.75484 56.81614 14.37419 -50.10587 96.32806 -83.89807 28.11119 2.6905 86.24695 -15.85982 -11.16134 -95.11112 -8.40757 -3.6303 -4.08649 91.7732 18.32573 0.56232 -96.97942 -8.47136 2.68 3.63851
-0.19927 -0.24791 0.1071 27.34263 1.01623 -10.20228 18.11942 4.16977 -11.00943 -29.28322 7.74782 -2.11977 -5.6016 -19.4729 30.89323 104.00021 73.70338 12.84285 -4.77196 56.06404 14.41685 -49.41803 96.29573 -84.14703 27.00798 2.65722 86.16919 -15.82136 -11.27399 -95.05344 -8.39694 -3.61915 -4.07954 91.78438 18.32052 0.42566 -97.03724 -8.45722 2.69789 3.64624
-0.19944 -0.24815 0.10702 27.22426 1.10699 -10.25629 18.00312 4.27048 -11.26669 -29.31966 7.37501 -2.11977 -5.41641 -18.7945 31.09159 103.42427 71.61373 13.40405 -5.16854 56.08425 15.41791 -50.09506 96.8549 -83.16424 26.55519 2.79152 86.07799 -15.79416 -11.36376 -95.02984 -8.38714 -3.60361 -4.07286 91.73868 18.35818 0.33408 -97.06508 -8.45513 2.70735 3.64945
-0.19956 -0.24846 0.10714 27.11862 1.21086 -10.2894 17.84285 4.3161 -11.50887 -29.31796 6.99211 -2.11977 -5.1411 -18.22436 31.2796 102.83326 68.94134 14.21609 -5.6818 56.33441 16.74543 -51.20768 97.63247 -81.76872 26.31282 2.98236 85.98587 -15.77205 -11.44756 -95.01938 -8.37768 -3.58685 -4.06639 91.67685 18.41213 0.2584 -97.08164 -8.4575 2.71357 3.65095
-0.19969 -0.24872 0.10716 27.00701 1.30435 -10.33062 17.70798 4.38437 -11.75826 -29.32253 6.61931 -2.11977 -4.91016 -17.61256 31.47553 102.25766 66.69051 14.8579 -6.11351 56.43336 17.90015 -52.05516 98.30753 -80.63429 25.98677 3.13746 85.89739 -15.7488 -11.53599 -95.0022 -8.36814 -3.57116 -4.05999 91.62553 18.45982 0.17683 -97.10224 -8.45795 2.7212 3.65324
-0.19985 -0.24903 0.10721 26.89535 1.41587 -10.37798 17.55013 4.46264 -12.00972 -29.36999 6.22047 -2.11977 -4.65544 -16.96379 31.65769 101.64471 63.79206 15.73109 -6.66299 56.7077 19.15603 -53.17019 99.0053 -79.20184 25.59614 3.33306 85.7961 -15.72062 -11.61826 -94.98846 -8.35819 -3.55329 -4.05287 91.56216 18.50356 0.08847 -97.12751 -8.45805 2.72908 3.65546
-0.19996 -0.24926 0.10726 26.78795 1.49335 -10.4076 17.42946 4.50789 -12.25073 -29.32017 5.8726 -2.11977 -4.43366 -16.42032 31.86494 101.10725 62.0869 16.18465 -6.99881 56.68838 20.27954 -53.84534 99.70035 -78.2686 25.38834 3.4615 85.72101 -15.70391 -11.71028 -94.97092 -8.34926 -3.53965 -4.04732 91.51944 18.55831 0.01852 -97.14054 -8.45983 2.73564 3.65742
-0.19997 -0.24924 0.10727 26.67935 1.47195 -10.39163 17.4257 4.46484 -12.48132 -29.01519 5.69113 -2.11977 -4.30939 -16.13331 32.15904 100.7716 63.96232 15.41576 -6.68035 55.69373 20.95526 -53.09975 100.38 -79.05687 25.72279 3.35149 85.71799 -15.71774 -11.84223 -94.93525 -8.3423 -3.53818 -4.04599 91.53859 18.64878 -0.00513 -97.11981 -8.46592 2.7396 3.65922
-0.19995 -0.24914 0.10729 26.57645 1.41627 -10.35873 17.46024 4.39236 -12.69897 -28.61332 5.55721 -2.11977 -4.22502 -15.95038 32.47618 100.51424 67.02938 14.21937 -6.1497 54.41669 21.48574 -51.91357 101.03891 -80.32492 26.22129 3.17792 85.74132 -15.74292 -11.98196 -94.89597 -8.3365 -3.54098 -4.04623 91.57867 18.74813 -0.01046 -97.08756 -8.47341 2.74228 3.6608
-0.19994 -0.24907 0.1073 26.47739 1.37744 -10.33469 17.4751 4.34014 -12.91238 -28.25387 5.38764 -2.11977 -4.13419 -15.72586 32.77311 100.2281 69.46042 13.21813 -5.73916 53.34261 22.08651 -50.99855 101.67848 -81.20703 26.58865 3.06034 85.75284 -15.76285 -12.11038 -94.86119 -8.33069 -3.54172 -4.04578 91.60842 18.83718 -0.02369 -97.06239 -8.47975 2.74538 3.6624
-0.19994 -0.249 0.10734 26.3516 1.33357 -10.30515 17.49825 4.25679 -13.16752 -27.90033 5.27889 -2.11977 -3.99241 -15.48191 33.11073 99.91347 72.28075 12.21259 -5.23155 51.96466 22.68675 -49.80931 102.45263 -82.7547 27.19886 2.83492 85.76377 -15.7834 -12.27127 -94.81498 -8.32274 -3.54292 -4.04527 91.64123 18.95279 -0.03846 -97.02927 -8.48835 2.74905 3.66429
-0.19992 -0.24893 0.10733 26.28269 1.29205 -10.28313 17.51351 4.23218 -13.33351 -27.51134 5.05239 -2.11977 -3.96542 -15.30052 33.36925 99.67603 74.56731 11.12289 -4.87566 51.14539 23.24159 -49.06819 102.93187 -83.0715 27.34329 2.81251 85.78202 -15.80521 -12.36668 -94.79134 -8.31947 -3.54422 -4.04525 91.67264 19.01553 -0.04554 -97.00985 -8.4926 2.75126 3.66551
-0.19988 -0.24891 0.1072 26.36934 1.26376 -10.28767 17.50036 4.37566 -13.2508 -27.05405 4.5114 -2.11978 -4.26361 -15.27688 33.40367 99.64135 75.21148 9.8022 -4.97675 51.9737 23.7732 -49.78275 102.66286 -79.55891 26.13054 3.41649 85.81566 -15.82846 -12.27728 -94.83261 -8.32917 -3.54464 -4.04615 91.69708 18.92532 -0.03884 -97.03343 -8.48387 2.75011 3.66517
-0.19983 -0.2489 0.10702 26.5129 1.23919 -10.3001 17.47767 4.57965 -13.08009 -26.56354 3.84671 -2.11978 -4.67298 -15.31011 33.358 99.68035 75.26071 8.42807 -5.23921 53.36602 24.25132 -50.94249 102.08837 -74.84766 24.44922 4.21794 85.85551 -15.85247 -12.12217 -94.89631 -8.34347 -3.54505 -4.0475 91.71913 18.78238 -0.02462 -97.07079 -8.47084 2.74751 3.66414
-0.19979 -0.24888 0.10687 26.63058 1.21396 -10.308 17.45778 4.75726 -12.95323 -26.0846 3.2234 -2.11978 -5.02029 -15.30996 33.34872 99.67964 75.50024 7.14672 -5.43711 54.4758 24.70702 -51.82153 101.60861 -70.89762 23.00036 4.89494 85.8914 -15.87562 -11.99846 -94.94859 -8.35545 -3.54556 -4.04867 91.74102 18.66669 -0.01187 -97.10039 -8.46014 2.74535 3.66327
-0.19974 -0.24886 0.10669 26.74897 1.18341 -10.31951 17.44568 4.92969 -12.80893 -25.61716 2.66211 -2.11978 -5.41803 -15.34544 33.33916 99.70691 76.10504 5.56759 -5.59325 55.68739 25.34996 -53.00905 101.3016 -66.06631 21.47062 5.71367 85.93282 -15.90123 -11.86831 -95.00603 -8.36843 -3.54583 -4.04982 91.76879 18.53758 -0.00641 -97.13601 -8.44778 2.74405 3.66301
-0.19971 -0.24886 0.10658 26.87878 1.16503 -10.32532 17.4146 5.12694 -12.68108 -25.11911 1.94448 -2.11978 -5.7361 -15.3187 33.31224 99.69369 75.80987 4.59381 -5.87417 56.82352 25.59855 -53.67468 100.57859 -62.75945 20.00135 6.2882 85.96409 -15.92185 -11.73614 -95.05797 -8.3804 -3.54654 -4.05109 91.7836 18.42362 0.01541 -97.1624 -8.43796 2.74065 3.66134
-0.19972 -0.24891 0.10664 27.03063 1.18165 -10.31608 17.33309 5.38454 -12.61307 -24.54565 0.80077 -2.11978 -5.81153 -15.10664 33.24498 99.53872 73.01399 5.37401 -6.49013 57.62379 24.71491 -52.71367 98.64037 -64.12127 18.76876 6.11303 85.96367 -15.92766 -11.612 -95.09013 -8.38853 -3.5484 -4.05256 91.76203 18.36598 0.08378 -97.16111 -8.43507 2.73159 3.6557
-0.19975 -0.24898 0.10678 27.19114 1.21017 -10.30046 17.23268 5.664 -12.56608 -23.94296 -0.49171 -2.11978 -5.80203 -14.82937 33.16506 99.34207 69.3538 6.75507 -7.22219 58.32873 23.44702 -51.22939 96.31869 -67.02038 17.6227 5.69133 85.95309 -15.92846 -11.48849 -95.11582 -8.39548 -3.5507 -4.05414 91.72762 18.32518 0.16771 -97.14993 -8.43506 2.72052 3.64872
-0.19977 -0.24903 0.10689 27.34477 1.23188 -10.28613 17.14098 5.92926 -12.51413 -23.35332 -1.7001 -2.11978 -5.82804 -14.58116 33.09873 99.17218 66.19322 7.8169 -7.88171 59.07104 22.39326 -50.03601 94.26757 -69.1108 16.46313 5.39972 85.94846 -15.93209 -11.36625 -95.14388 -8.40289 -3.55283 -4.05569 91.69976 18.27545 0.24226 -97.14256 -8.43448 2.71052 3.64253
-0.19981 -0.24911 0.10699 27.51286 1.25953 -10.27878 17.0485 6.21447 -12.43954 -22.76294 -2.98209 -2.11978 -5.87044 -14.33749 32.99677 98.97277 62.57517 9.06891 -8.62763 59.8554 21.17256 -48.63028 91.80664 -71.64458 15.17025 5.03601 85.9385 -15.9336 -11.23521 -95.17508 -8.41075 -3.55484 -4.05716 91.66883 18.22881 0.32662 -97.1385 -8.43069 2.69978 3.63554
-0.19982 -0.24915 0.10713 27.65206 1.27769 -10.2554 16.95324 6.4627 -12.41848 -22.16822 -4.14481 -2.11979 -5.85778 -14.06804 32.96677 98.8229 59.69535 10.07147 -9.22235 60.52547 20.20676 -47.54116 90.10292 -73.61019 14.19181 4.76477 85.93707 -15.93812 -11.12346 -95.19794 -8.41737 -3.55717 -4.05882 91.64124 18.18099 0.39438 -97.12508 -8.43425 2.69014 3.6299
-0.19975 -0.24912 0.10738 27.70955 1.26593 -10.18825 16.85515 6.60182 -12.53874 -21.56345 -4.93917 -2.11979 -5.70687 -13.74354 33.14201 98.82872 59.21705 10.21061 -9.34138 60.8725 20.05608 -47.41163 90.65996 -73.86902 13.97121 4.77676 85.96221 -15.95397 -11.06545 -95.19896 -8.42037 -3.56045 -4.06109 91.62633 18.12124 0.41011 -97.08762 -8.4582 2.68413 3.62844
-0.19965 -0.24907 0.10768 27.73722 1.24436 -10.10535 16.75493 6.703 -12.71307 -20.95622 -5.60862 -2.11979 -5.50396 -13.39502 33.39014 98.88379 59.48955 10.08292 -9.3082 61.11027 20.17022 -47.62157 91.97565 -73.47601 14.07979 4.89361 85.99617 -15.97266 -11.02715 -95.19176 -8.4222 -3.56398 -4.06353 91.6152 18.06082 0.40883 -97.04115 -8.48933 2.67931 3.62836
-0.19957 -0.24903 0.10796 27.77826 1.22778 -10.03032 16.65555 6.82231 -12.86365 -20.35406 -6.33586 -2.11979 -5.32919 -13.05709 33.60275 98.91027 59.31738 10.09643 -9.36444 61.41602 20.15467 -47.70573 92.90076 -73.2166 14.1027 4.98499 86.02567 -15.98892 -10.97961 -95.18846 -8.42487 -3.56727 -4.06583 91.60211 18.004 0.41703 -96.99909 -8.51669 2.67389 3.62756
-0.19949 -0.24899 0.10824 27.82089 1.2093 -9.95205 16.55598 6.93859 -13.01046 -19.73522 -7.06244 -2.11979 -5.13358 -12.71829 33.82392 98.96171 59.53719 10.04876 -9.34264 61.64335 20.17346 -47.66399 94.02201 -73.64946 13.87186 4.98157 86.05663 -16.00993 -10.93283 -95.18423 -8.42626 -3.57111 -4.06844 91.5895 17.93394 0.41899 -96.95525 -8.54631 2.66861 3.6271
